<svg width="20" height="19" viewBox="0 0 20 19" fill="none" xmlns="http://www.w3.org/2000/svg">
<path d="M14.446 1.162C15.114 0.363 15.782 0 17.012 0C18.735 0 20 1.2 20 3.487V15.767C20 18.02 18.77 19 16.837 19C16.028 19 15.36 18.819 14.834 18.419C14.271 17.874 13.954 17.038 13.954 15.767V11.008L12.513 12.788C11.705 13.841 11.002 14.241 10.018 14.241C8.822 14.241 8.084 13.624 7.452 12.824L6.046 11.007V15.767C6.046 17.039 5.729 17.874 5.167 18.419C4.64 18.818 3.972 19 3.163 19C1.23 19 0 18.019 0 15.767V3.488C0 1.199 1.265 0 2.988 0C4.218 0 4.886 0.363 5.554 1.162L10.018 6.43L14.446 1.162Z" fill="#1D1C64"/>
</svg>
