<svg width="18" height="19" viewBox="0 0 18 19" fill="none" xmlns="http://www.w3.org/2000/svg">
<path d="M17.012 5.584L13.43 9.575L16.903 13.452C17.598 14.25 17.855 15.011 17.855 15.918C17.855 17.405 16.538 19 14.562 19C13.684 19 12.769 18.601 11.964 17.658L9.00001 14.271L6.036 17.658C5.196 18.637 4.31701 19 3.366 19C1.463 19 0.110001 17.405 0.110001 15.882C0.110001 14.976 0.366004 14.214 1.062 13.416L4.562 9.55L0.988007 5.548C0.293007 4.75 0 3.989 0 3.046C0 1.45 1.5 0 3.293 0C4.207 0 5.16001 0.399 5.96301 1.342L9.01301 4.848L12.073 1.378C12.915 0.435 13.793 0 14.707 0C16.463 0 18 1.522 18 3.082C18 4.024 17.707 4.786 17.012 5.584Z" fill="#1D1C64"/>
</svg>
