<svg width="19" height="20" viewBox="0 0 19 20" fill="none" xmlns="http://www.w3.org/2000/svg">
<path d="M9.591 1C11.074 1.037 12.196 1.69 12.811 2.96V2.959L18.276 14.634C18.855 15.831 19 16.338 19 17.208C19 18.622 17.914 20 15.924 20C14.549 20 13.86 19.53 13.065 18.223L12.269 16.918C11.726 16.048 10.894 15.178 9.554 15.178C8.179 15.178 7.347 16.048 6.804 16.918L6.008 18.223C5.212 19.529 4.488 20 3.112 20C1.158 20 0 18.659 0 17.245C0 16.374 0.216 15.83 0.833 14.561L6.333 2.958C6.949 1.653 8.034 0.964 9.591 1Z" fill="#1D1C64"/>
</svg>
